<mxfile host="65bd71144e">
    <diagram id="gDZeyvPa9otfaKacESeu" name="Page-1">
        <mxGraphModel dx="1181" dy="472" grid="1" gridSize="10" guides="1" tooltips="1" connect="1" arrows="1" fold="1" page="1" pageScale="1" pageWidth="850" pageHeight="1100" math="0" shadow="0">
            <root>
                <mxCell id="0"/>
                <mxCell id="1" parent="0"/>
                <mxCell id="4" value="Member" style="swimlane;whiteSpace=wrap;html=1;" parent="1" vertex="1">
                    <mxGeometry x="280" y="200" width="120" height="120" as="geometry"/>
                </mxCell>
                <mxCell id="8" value="" style="endArrow=none;html=1;" parent="4" edge="1">
                    <mxGeometry width="50" height="50" relative="1" as="geometry">
                        <mxPoint y="49" as="sourcePoint"/>
                        <mxPoint x="120" y="49" as="targetPoint"/>
                    </mxGeometry>
                </mxCell>
                <mxCell id="12" value="&lt;div style=&quot;text-align: left; font-size: 11px;&quot;&gt;&lt;span style=&quot;background-color: initial;&quot;&gt;&lt;font style=&quot;font-size: 11px;&quot;&gt;First_Name&lt;/font&gt;&lt;/span&gt;&lt;/div&gt;&lt;div style=&quot;text-align: left; font-size: 11px;&quot;&gt;&lt;span style=&quot;background-color: initial;&quot;&gt;&lt;font style=&quot;font-size: 11px;&quot;&gt;Last_Name&lt;/font&gt;&lt;/span&gt;&lt;/div&gt;&lt;div style=&quot;text-align: left; font-size: 11px;&quot;&gt;&lt;span style=&quot;background-color: initial;&quot;&gt;&lt;font style=&quot;font-size: 11px;&quot;&gt;Adress&lt;/font&gt;&lt;/span&gt;&lt;/div&gt;&lt;div style=&quot;text-align: left; font-size: 11px;&quot;&gt;&lt;span style=&quot;background-color: initial;&quot;&gt;&lt;font style=&quot;font-size: 11px;&quot;&gt;Date_of_Birdh&lt;/font&gt;&lt;/span&gt;&lt;/div&gt;&lt;div style=&quot;text-align: left; font-size: 11px;&quot;&gt;&lt;span style=&quot;background-color: initial;&quot;&gt;&lt;font style=&quot;font-size: 11px;&quot;&gt;Gender&lt;/font&gt;&lt;/span&gt;&lt;/div&gt;" style="text;html=1;strokeColor=none;fillColor=none;align=center;verticalAlign=middle;whiteSpace=wrap;rounded=0;" parent="4" vertex="1">
                    <mxGeometry x="20" y="60" width="60" height="50" as="geometry"/>
                </mxCell>
                <mxCell id="13" value="Id" style="text;html=1;strokeColor=none;fillColor=none;align=center;verticalAlign=middle;whiteSpace=wrap;rounded=0;" parent="4" vertex="1">
                    <mxGeometry x="20" y="20" width="60" height="30" as="geometry"/>
                </mxCell>
                <mxCell id="5" value="Gym" style="swimlane;whiteSpace=wrap;html=1;" parent="1" vertex="1">
                    <mxGeometry x="120" y="40" width="120" height="110" as="geometry"/>
                </mxCell>
                <mxCell id="11" value="Name&lt;br&gt;Adress&lt;br&gt;Telephone _Number" style="text;html=1;strokeColor=none;fillColor=none;align=left;verticalAlign=middle;whiteSpace=wrap;rounded=0;" parent="5" vertex="1">
                    <mxGeometry y="40" width="130" height="40" as="geometry"/>
                </mxCell>
                <mxCell id="6" value="Session" style="swimlane;whiteSpace=wrap;html=1;" parent="1" vertex="1">
                    <mxGeometry x="480" y="360" width="120" height="120" as="geometry"/>
                </mxCell>
                <mxCell id="9" value="&lt;div style=&quot;text-align: left;&quot;&gt;&lt;span style=&quot;background-color: initial;&quot;&gt;Type_of_sport&lt;/span&gt;&lt;/div&gt;&lt;div style=&quot;text-align: left;&quot;&gt;&lt;span style=&quot;background-color: initial;&quot;&gt;Session-schedule&lt;/span&gt;&lt;/div&gt;" style="text;html=1;strokeColor=none;fillColor=none;align=center;verticalAlign=middle;whiteSpace=wrap;rounded=0;" parent="6" vertex="1">
                    <mxGeometry x="5" y="40" width="110" height="40" as="geometry"/>
                </mxCell>
                <mxCell id="7" value="Coach" style="swimlane;whiteSpace=wrap;html=1;" parent="1" vertex="1">
                    <mxGeometry x="480" y="40" width="120" height="110" as="geometry"/>
                </mxCell>
                <mxCell id="10" value="&lt;div style=&quot;text-align: left;&quot;&gt;&lt;span style=&quot;background-color: initial;&quot;&gt;First_Name&lt;/span&gt;&lt;/div&gt;&lt;div style=&quot;text-align: left;&quot;&gt;&lt;span style=&quot;background-color: initial;&quot;&gt;Last_Name&lt;/span&gt;&lt;/div&gt;&lt;div style=&quot;text-align: left;&quot;&gt;&lt;span style=&quot;background-color: initial;&quot;&gt;Age&lt;/span&gt;&lt;/div&gt;&lt;div style=&quot;text-align: left;&quot;&gt;&lt;span style=&quot;background-color: initial;&quot;&gt;Specialty&lt;/span&gt;&lt;/div&gt;" style="text;html=1;strokeColor=none;fillColor=none;align=center;verticalAlign=middle;whiteSpace=wrap;rounded=0;" parent="7" vertex="1">
                    <mxGeometry x="10" y="45" width="60" height="30" as="geometry"/>
                </mxCell>
                <mxCell id="18" value="" style="endArrow=classic;startArrow=classic;html=1;fontSize=11;" parent="1" edge="1">
                    <mxGeometry width="50" height="50" relative="1" as="geometry">
                        <mxPoint x="240" y="100" as="sourcePoint"/>
                        <mxPoint x="480" y="100" as="targetPoint"/>
                    </mxGeometry>
                </mxCell>
                <mxCell id="19" value="" style="endArrow=classic;startArrow=classic;html=1;fontSize=11;entryX=0.5;entryY=0;entryDx=0;entryDy=0;exitX=0.5;exitY=1;exitDx=0;exitDy=0;" parent="1" source="7" target="6" edge="1">
                    <mxGeometry width="50" height="50" relative="1" as="geometry">
                        <mxPoint x="270" y="390" as="sourcePoint"/>
                        <mxPoint x="670" y="230" as="targetPoint"/>
                    </mxGeometry>
                </mxCell>
                <mxCell id="22" value="" style="endArrow=classic;html=1;fontSize=11;" parent="1" edge="1">
                    <mxGeometry width="50" height="50" relative="1" as="geometry">
                        <mxPoint x="340" y="420" as="sourcePoint"/>
                        <mxPoint x="480" y="420" as="targetPoint"/>
                    </mxGeometry>
                </mxCell>
                <mxCell id="23" value="" style="endArrow=classic;html=1;fontSize=11;entryX=0.5;entryY=1;entryDx=0;entryDy=0;" parent="1" target="4" edge="1">
                    <mxGeometry width="50" height="50" relative="1" as="geometry">
                        <mxPoint x="340" y="420" as="sourcePoint"/>
                        <mxPoint x="390" y="370" as="targetPoint"/>
                    </mxGeometry>
                </mxCell>
                <mxCell id="24" value="" style="endArrow=classic;html=1;fontSize=11;" parent="1" edge="1">
                    <mxGeometry width="50" height="50" relative="1" as="geometry">
                        <mxPoint x="160" y="240" as="sourcePoint"/>
                        <mxPoint x="160" y="150" as="targetPoint"/>
                    </mxGeometry>
                </mxCell>
                <mxCell id="25" value="" style="endArrow=classic;html=1;fontSize=11;" parent="1" edge="1">
                    <mxGeometry width="50" height="50" relative="1" as="geometry">
                        <mxPoint x="160" y="240" as="sourcePoint"/>
                        <mxPoint x="280" y="240" as="targetPoint"/>
                    </mxGeometry>
                </mxCell>
                <mxCell id="27" value="1.1&lt;br&gt;" style="text;html=1;align=center;verticalAlign=middle;resizable=0;points=[];autosize=1;strokeColor=none;fillColor=none;fontSize=11;" parent="1" vertex="1">
                    <mxGeometry x="340" y="320" width="40" height="30" as="geometry"/>
                </mxCell>
                <mxCell id="28" value="1.1&lt;br&gt;" style="text;html=1;align=center;verticalAlign=middle;resizable=0;points=[];autosize=1;strokeColor=none;fillColor=none;fontSize=11;" parent="1" vertex="1">
                    <mxGeometry x="500" y="150" width="40" height="30" as="geometry"/>
                </mxCell>
                <mxCell id="30" value="1.N" style="text;html=1;align=center;verticalAlign=middle;resizable=0;points=[];autosize=1;strokeColor=none;fillColor=none;fontSize=11;" parent="1" vertex="1">
                    <mxGeometry x="500" y="330" width="40" height="30" as="geometry"/>
                </mxCell>
                <mxCell id="31" value="1.N" style="text;html=1;align=center;verticalAlign=middle;resizable=0;points=[];autosize=1;strokeColor=none;fillColor=none;fontSize=11;" parent="1" vertex="1">
                    <mxGeometry x="240" y="70" width="40" height="30" as="geometry"/>
                </mxCell>
                <mxCell id="32" value="1.N" style="text;html=1;align=center;verticalAlign=middle;resizable=0;points=[];autosize=1;strokeColor=none;fillColor=none;fontSize=11;" parent="1" vertex="1">
                    <mxGeometry x="160" y="150" width="40" height="30" as="geometry"/>
                </mxCell>
                <mxCell id="33" value="1.N" style="text;html=1;align=center;verticalAlign=middle;resizable=0;points=[];autosize=1;strokeColor=none;fillColor=none;fontSize=11;" parent="1" vertex="1">
                    <mxGeometry x="440" y="70" width="40" height="30" as="geometry"/>
                </mxCell>
                <mxCell id="34" value="Register&lt;br&gt;" style="text;html=1;align=center;verticalAlign=middle;resizable=0;points=[];autosize=1;strokeColor=none;fillColor=none;fontSize=11;" parent="1" vertex="1">
                    <mxGeometry x="180" y="240" width="60" height="30" as="geometry"/>
                </mxCell>
                <mxCell id="35" value="Update&lt;br&gt;" style="text;html=1;align=center;verticalAlign=middle;resizable=0;points=[];autosize=1;strokeColor=none;fillColor=none;fontSize=11;" parent="1" vertex="1">
                    <mxGeometry x="330" y="70" width="60" height="30" as="geometry"/>
                </mxCell>
                <mxCell id="36" value="Accommodate&lt;br&gt;" style="text;html=1;align=center;verticalAlign=middle;resizable=0;points=[];autosize=1;strokeColor=none;fillColor=none;fontSize=11;" parent="1" vertex="1">
                    <mxGeometry x="360" y="420" width="90" height="30" as="geometry"/>
                </mxCell>
                <mxCell id="37" value="Led" style="text;html=1;align=center;verticalAlign=middle;resizable=0;points=[];autosize=1;strokeColor=none;fillColor=none;fontSize=11;" parent="1" vertex="1">
                    <mxGeometry x="540" y="240" width="40" height="30" as="geometry"/>
                </mxCell>
            </root>
        </mxGraphModel>
    </diagram>
</mxfile>